<svg xmlns="http://www.w3.org/2000/svg" width="17" height="23" viewBox="0 0 17 23">
    <g fill="#876234" fill-rule="evenodd">
        <path d="M14.179 3.589c-.012-.11-.026-.22-.041-.326-.322-2.196-.712-3.11-1.483-3.24C12.56.008 12.46 0 12.36 0 11.317 0 9.96.8 8.929 1.576c-.11.083-.222.17-.33.258C5.01 4.741 3.632 9.354 4.664 13.56c.311 1.27.833 2.502 1.59 3.639.094.133.193.267.293.402.126.171.257.344.393.518.431.522.918.97 1.437 1.358-1.63-1.692-2.634-3.992-2.634-6.527 0-4.868 3.697-8.872 8.436-9.36" transform="translate(1 1)"/>
        <path d="M8.545 16.72c.868-.853 4.23-4.402 5.333-9.13.006-.028.015-.055.021-.084.251-1.106.346-2.083.338-2.938-.004-.346-.024-.672-.058-.98-4.739.489-8.435 4.493-8.435 9.362 0 2.534 1.004 4.834 2.633 6.526l.06.046c-.615-.578-.81-1.932.108-2.802" transform="translate(1 1)"/>
        <path d="M8.546 16.72c-.92.87-.724 2.224-.11 2.802.289.211.584.41.893.58-.017-.012-.033-.029-.048-.041.041.031.085.062.132.088.933.5 1.962.822 3.013.943.472.054.95.06 1.423.033.324-.019.647-.052.96-.136.231-.062.472-.166.597-.383.138-.242.123-.54.057-.802-.052-.205-.137-.405-.223-.574-.77-1.5-2.186-2.678-3.851-3.016-.297-.06-.632-.098-.974-.098-.686 0-1.396.154-1.87.604M2.907 10.541C1.417 8.877.51 6.68.51 4.271c0-1.047.173-2.052.488-2.992-.261.406-.562 1.042-.734 1.936-.696 3.625-.324 9.798 4.877 14.545 0 0-2.32-2.827-2.235-7.219" transform="translate(1 1)"/>
        <path d="M4.225 5.083s-.293-2.139-1.57-3.748C2.356.96 1.888.645 1.588.687c-.047.007-.091.02-.13.046-.076.052-.255.23-.459.546-.315.94-.488 1.945-.488 2.992 0 2.409.907 4.606 2.396 6.27.019-1.006.163-2.094.493-3.25.202-.711.47-1.448.825-2.208" transform="translate(1 1)"/>
    </g>
</svg>
