<svg xmlns="http://www.w3.org/2000/svg" width="125" height="40" viewBox="0 0 125 40">
    <g fill="none" fill-rule="evenodd">
        <g>
            <text fill="#FEFFFD" font-family="PingFangTC-Semibold, PingFang TC" font-size="16" font-weight="500" transform="translate(5 4) translate(0 15)">
                <tspan x="80.564" y="17">2020</tspan>
            </text>
            <path fill="#FFF" stroke="#FFF" stroke-width=".5" d="M20.755 5.774L13.219 5.774 13.219 6.461 16.608 6.461 16.608 16.831 17.366 16.831 17.366 6.461 20.755 6.461zM77.605 6.02L76.805 6.02 74.489 14.756 71.305 6.217 68.086 14.757 65.816 6.06 65.805 6.02 65 6.02 67.982 17.1 71.315 8.255 74.584 17.098 77.587 6.087zM24.968 5.774L24.19 5.774 24.19 16.856 29.591 16.856 29.591 16.109 24.968 16.109zM43.177 6.231L42.521 6.231 42.521 16.721 43.177 16.721 43.177 11.447 49.176 11.447 49.176 16.721 49.829 16.721 49.829 6.231 49.176 6.231 49.176 10.813 43.177 10.813zM39.107 11.876c-.603-.602-1.146-.877-1.67-1.143-.532-.27-1.082-.549-1.692-1.159-.326-.326-.506-.76-.506-1.222 0-.462.18-.895.506-1.222.327-.326.76-.506 1.222-.506.461 0 .896.18 1.222.506.116.117.215.248.293.391l.681-.312c-.117-.224-.266-.427-.446-.606-.467-.468-1.089-.726-1.75-.726s-1.283.258-1.75.726c-.467.467-.724 1.088-.724 1.749s.257 1.282.724 1.75c.447.446 1.086.812 1.704 1.165.606.345 1.232.703 1.662 1.132.431.432.669 1.006.669 1.616 0 .611-.238 1.184-.669 1.616-.432.431-1.005.669-1.616.669-.61 0-1.184-.238-1.616-.669-.202-.202-.361-.435-.475-.694l-.691.27c.151.354.367.672.644.947 1.178 1.18 3.097 1.18 4.278 0 1.179-1.179 1.179-3.099 0-4.278M62.971 11.468c0 .94-.22 1.802-.652 2.563-.433.766-1.046 1.379-1.823 1.82-.772.442-1.626.666-2.537.666-1.36 0-2.542-.487-3.51-1.447-.966-.963-1.456-2.156-1.456-3.548 0-.944.222-1.808.66-2.57.435-.767 1.05-1.385 1.826-1.837.781-.452 1.615-.681 2.48-.681.882 0 1.73.229 2.52.68.786.45 1.405 1.062 1.84 1.818.438.76.652 1.59.652 2.536m-5.06-5.614c-.999 0-1.937.25-2.788.746-.856.493-1.542 1.186-2.037 2.062-.496.88-.747 1.844-.747 2.864 0 1.534.552 2.86 1.64 3.942 1.09 1.083 2.443 1.632 4.023 1.632 1.561 0 2.902-.551 3.987-1.637 1.085-1.088 1.634-2.431 1.634-3.991 0-1.575-.55-2.921-1.636-3.998-1.087-1.075-2.459-1.62-4.077-1.62M.133 16.853L.868 16.853.868 5.773.133 5.773zM11.28 5.774L11.28 14.914 3.383 5.774 3.383 16.854 4.155 16.854 4.155 7.831 12.001 16.854 12.001 5.774zM22.168 5.774L22.168 6.566 22.564 6.566 22.48 7.218 22.959 6.566 22.959 5.774z" transform="translate(5 4) translate(0 15)"/>
        </g>
        <g fill="#FFF">
            <path stroke="#FFF" stroke-width=".5" d="M7.536.425L0 .425 0 1.112 3.389 1.112 3.389 11.482 4.147 11.482 4.147 1.112 7.536 1.112zM13.186 6.845h-3.72l1.866-4.715 1.854 4.715zm-6.33 4.564l-.03.072h.805l1.515-3.826h4.337l1.515 3.794.013.032h.772L11.325.351l-4.47 11.058zM40.161 6.845h-3.72l1.866-4.715 1.854 4.715zM33.83 11.41l-.029.072h.806l1.515-3.826h4.337l1.515 3.794.013.032h.772L38.301.351 33.83 11.408zM17.871 11.473L18.605 11.488 18.828.41 18.093.396zM34.37.401L33.57.401 31.253 9.137 28.07.598 24.85 9.138 22.581.441 22.57.401 21.765.401 24.747 11.481 28.079 2.636 31.349 11.479 34.352.468zM52.516.401L52.516 9.541 44.618.401 44.618 11.481 45.391 11.481 45.391 2.458 53.236 11.481 53.236.401z" transform="translate(5 4) translate(4)"/>
            <path d="M61.517 6.461v2.945h1.037c.91 0 1.522-.115 1.837-.344.316-.229.475-.561.475-1 0-.495-.184-.886-.555-1.173-.372-.285-.989-.428-1.852-.428h-.943zm0-4.375v2.422h.968c.532 0 .93-.111 1.187-.336.26-.223.39-.53.39-.914 0-.359-.125-.645-.368-.857-.248-.211-.622-.315-1.123-.315h-1.054zm-2.135 9.405V0h2.392c1.05 0 1.666.066 2.151.202.688.181 1.237.522 1.642 1.016.41.495.613 1.079.613 1.749 0 .437-.096.835-.277 1.194-.187.354-.49.691-.904 1.003.699.328 1.206.738 1.53 1.23.325.491.484 1.075.484 1.748 0 .645-.168 1.232-.499 1.764-.332.531-.763.93-1.29 1.191-.526.264-1.255.394-2.184.394h-3.657zM68.808 0L75.079 0 75.079 2.14 70.98 2.14 70.98 4.508 75.079 4.508 75.079 6.61 70.98 6.61 70.98 9.344 75.079 9.344 75.079 11.491 68.808 11.491zM81.661 3.047L80.212 6.99h2.886l-1.437-3.943zM80.607 0h2.082l4.148 11.491h-2.133l-.846-2.366h-4.399l-.879 2.366h-2.134L80.607.001zM87.786 0h2.195v7.431c0 .64.057 1.092.17 1.36.112.266.296.475.554.633.26.16.569.24.935.24.383 0 .716-.09.995-.265.279-.178.47-.4.579-.675.106-.273.158-.796.158-1.565V0h2.196v6.851c0 1.157-.064 1.96-.194 2.407-.133.448-.38.88-.746 1.296-.367.418-.79.725-1.27.926-.479.2-1.037.302-1.673.302-.832 0-1.56-.193-2.173-.574-.621-.383-1.059-.864-1.327-1.44-.264-.574-.399-1.549-.399-2.917V.001zM96.956 0L104.962 0 104.962 2.157 102.041 2.157 102.041 11.491 99.822 11.491 99.822 2.157 96.956 2.157zM106.155 0L108.504 0 110.647 4.132 112.781 0 115.099 0 111.737 6.517 111.737 11.491 109.532 11.491 109.532 6.517z" transform="translate(5 4) translate(4)"/>
        </g>
    </g>
</svg>
