<svg xmlns="http://www.w3.org/2000/svg" width="30" height="40" viewBox="0 0 30 40">
    <g fill="#FFF" fill-rule="evenodd">
        <path d="M26.585 6.729c-.022-.208-.048-.412-.077-.611-.604-4.117-1.335-5.832-2.78-6.074C23.55.014 23.365 0 23.177 0c-1.958 0-4.502 1.5-6.436 2.955-.207.157-.415.319-.618.484C9.395 8.89 6.81 17.537 8.744 25.424c.585 2.379 1.562 4.69 2.983 6.821.176.25.361.503.548.756.237.32.483.644.738.97.808.98 1.72 1.819 2.695 2.546-3.056-3.173-4.94-7.484-4.94-12.237 0-9.127 6.932-16.636 15.817-17.551"/>
        <path d="M16.022 31.35c1.627-1.6 7.932-8.253 9.999-17.117.012-.055.029-.106.04-.159.47-2.074.648-3.905.633-5.509-.006-.649-.045-1.26-.109-1.836C17.7 7.644 10.77 15.153 10.77 24.28c0 4.752 1.884 9.063 4.938 12.236.038.028.074.06.112.086-1.152-1.083-1.519-3.621.203-5.253"/>
        <path d="M16.023 31.35c-1.724 1.632-1.356 4.17-.204 5.253.54.397 1.093.77 1.672 1.089-.03-.023-.06-.054-.09-.078.078.06.16.117.248.165 1.75.937 3.678 1.54 5.65 1.768.885.102 1.78.113 2.668.061.607-.033 1.212-.097 1.8-.253.434-.116.885-.312 1.118-.719.26-.454.231-1.013.107-1.503-.097-.385-.255-.76-.417-1.076-1.442-2.813-4.099-5.023-7.22-5.655-.557-.112-1.186-.185-1.827-.185-1.285 0-2.618.29-3.505 1.133M5.45 19.765C2.658 16.643.958 12.525.958 8.007c0-1.962.324-3.846.916-5.609-.49.762-1.055 1.954-1.377 3.63C-.808 12.826-.111 24.4 9.64 33.3c0 0-4.35-5.3-4.191-13.534"/>
        <path d="M7.922 9.531s-.55-4.01-2.944-7.027c-.56-.706-1.439-1.293-2-1.216-.089.013-.172.038-.243.087-.143.098-.48.431-.861 1.024C1.283 4.16.958 6.045.958 8.007c0 4.518 1.7 8.637 4.492 11.758.036-1.886.307-3.926.925-6.093.379-1.335.88-2.716 1.547-4.141"/>
    </g>
</svg>
