<svg xmlns="http://www.w3.org/2000/svg" xmlns:xlink="http://www.w3.org/1999/xlink" width="229" height="40" viewBox="0 0 229 40">
    <defs>
        <path id="vuq4h85mpa" d="M0 0.323L14.484 0.323 14.484 16.478 0 16.478z"/>
        <path id="vjllw0aqoc" d="M0.339 0.323L7.826 0.323 7.826 16.478 0.339 16.478z"/>
    </defs>
    <g fill="none" fill-rule="evenodd">
        <g fill="#FFF">
            <path d="M26.585 6.729c-.022-.208-.048-.412-.077-.611-.604-4.117-1.335-5.832-2.78-6.074C23.55.014 23.365 0 23.177 0c-1.958 0-4.502 1.5-6.436 2.955-.207.157-.415.319-.618.484C9.395 8.89 6.81 17.537 8.744 25.424c.585 2.379 1.562 4.69 2.983 6.821.176.25.361.503.548.756.237.32.483.644.738.97.808.98 1.72 1.819 2.695 2.546-3.056-3.173-4.94-7.484-4.94-12.237 0-9.127 6.932-16.636 15.817-17.551" transform="translate(0 -2)"/>
            <path d="M16.022 31.35c1.627-1.6 7.932-8.253 9.999-17.117.012-.055.029-.106.04-.159.47-2.074.648-3.905.633-5.509-.006-.649-.045-1.26-.109-1.836C17.7 7.644 10.77 15.153 10.77 24.28c0 4.752 1.884 9.063 4.938 12.236.038.028.074.06.112.086-1.152-1.083-1.519-3.621.203-5.253" transform="translate(0 -2)"/>
            <path d="M16.023 31.35c-1.724 1.632-1.356 4.17-.204 5.253.54.397 1.093.77 1.672 1.089-.03-.023-.06-.054-.09-.078.078.06.16.117.248.165 1.75.937 3.678 1.54 5.65 1.768.885.102 1.78.113 2.668.061.607-.033 1.212-.097 1.8-.253.434-.116.885-.312 1.118-.719.26-.454.231-1.013.107-1.503-.097-.385-.255-.76-.417-1.076-1.442-2.813-4.099-5.023-7.22-5.655-.557-.112-1.186-.185-1.827-.185-1.285 0-2.618.29-3.505 1.133M5.45 19.765C2.658 16.643.958 12.525.958 8.007c0-1.962.324-3.846.916-5.609-.49.762-1.055 1.954-1.377 3.63C-.808 12.826-.111 24.4 9.64 33.3c0 0-4.35-5.3-4.191-13.534" transform="translate(0 -2)"/>
            <path d="M7.922 9.531s-.55-4.01-2.944-7.027c-.56-.706-1.439-1.293-2-1.216-.089.013-.172.038-.243.087-.143.098-.48.431-.861 1.024C1.283 4.16.958 6.045.958 8.007c0 4.518 1.7 8.637 4.492 11.758.036-1.886.307-3.926.925-6.093.379-1.335.88-2.716 1.547-4.141" transform="translate(0 -2)"/>
        </g>
        <g>
            <g>
                <text fill="#FEFFFD" font-family="PingFangTC-Semibold, PingFang TC" font-size="16" font-weight="500" transform="translate(0 -2) translate(35 4) translate(0 15)">
                    <tspan x="80.564" y="17">2020</tspan>
                </text>
                <path fill="#FFF" stroke="#FFF" stroke-width=".5" d="M20.755 5.774L13.219 5.774 13.219 6.461 16.608 6.461 16.608 16.831 17.366 16.831 17.366 6.461 20.755 6.461zM77.605 6.02L76.805 6.02 74.489 14.756 71.305 6.217 68.086 14.757 65.816 6.06 65.805 6.02 65 6.02 67.982 17.1 71.315 8.255 74.584 17.098 77.587 6.087zM24.968 5.774L24.19 5.774 24.19 16.856 29.591 16.856 29.591 16.109 24.968 16.109zM43.177 6.231L42.521 6.231 42.521 16.721 43.177 16.721 43.177 11.447 49.176 11.447 49.176 16.721 49.829 16.721 49.829 6.231 49.176 6.231 49.176 10.813 43.177 10.813zM39.107 11.876c-.603-.602-1.146-.877-1.67-1.143-.532-.27-1.082-.549-1.692-1.159-.326-.326-.506-.76-.506-1.222 0-.462.18-.895.506-1.222.327-.326.76-.506 1.222-.506.461 0 .896.18 1.222.506.116.117.215.248.293.391l.681-.312c-.117-.224-.266-.427-.446-.606-.467-.468-1.089-.726-1.75-.726s-1.283.258-1.75.726c-.467.467-.724 1.088-.724 1.749s.257 1.282.724 1.75c.447.446 1.086.812 1.704 1.165.606.345 1.232.703 1.662 1.132.431.432.669 1.006.669 1.616 0 .611-.238 1.184-.669 1.616-.432.431-1.005.669-1.616.669-.61 0-1.184-.238-1.616-.669-.202-.202-.361-.435-.475-.694l-.691.27c.151.354.367.672.644.947 1.178 1.18 3.097 1.18 4.278 0 1.179-1.179 1.179-3.099 0-4.278M62.971 11.468c0 .94-.22 1.802-.652 2.563-.433.766-1.046 1.379-1.823 1.82-.772.442-1.626.666-2.537.666-1.36 0-2.542-.487-3.51-1.447-.966-.963-1.456-2.156-1.456-3.548 0-.944.222-1.808.66-2.57.435-.767 1.05-1.385 1.826-1.837.781-.452 1.615-.681 2.48-.681.882 0 1.73.229 2.52.68.786.45 1.405 1.062 1.84 1.818.438.76.652 1.59.652 2.536m-5.06-5.614c-.999 0-1.937.25-2.788.746-.856.493-1.542 1.186-2.037 2.062-.496.88-.747 1.844-.747 2.864 0 1.534.552 2.86 1.64 3.942 1.09 1.083 2.443 1.632 4.023 1.632 1.561 0 2.902-.551 3.987-1.637 1.085-1.088 1.634-2.431 1.634-3.991 0-1.575-.55-2.921-1.636-3.998-1.087-1.075-2.459-1.62-4.077-1.62M.133 16.853L.868 16.853.868 5.773.133 5.773zM11.28 5.774L11.28 14.914 3.383 5.774 3.383 16.854 4.155 16.854 4.155 7.831 12.001 16.854 12.001 5.774zM22.168 5.774L22.168 6.566 22.564 6.566 22.48 7.218 22.959 6.566 22.959 5.774z" transform="translate(0 -2) translate(35 4) translate(0 15)"/>
            </g>
            <g fill="#FFF">
                <path stroke="#FFF" stroke-width=".5" d="M7.536.425L0 .425 0 1.112 3.389 1.112 3.389 11.482 4.147 11.482 4.147 1.112 7.536 1.112zM13.186 6.845h-3.72l1.866-4.715 1.854 4.715zm-6.33 4.564l-.03.072h.805l1.515-3.826h4.337l1.515 3.794.013.032h.772L11.325.351l-4.47 11.058zM40.161 6.845h-3.72l1.866-4.715 1.854 4.715zM33.83 11.41l-.029.072h.806l1.515-3.826h4.337l1.515 3.794.013.032h.772L38.301.351 33.83 11.408zM17.871 11.473L18.605 11.488 18.828.41 18.093.396zM34.37.401L33.57.401 31.253 9.137 28.07.598 24.85 9.138 22.581.441 22.57.401 21.765.401 24.747 11.481 28.079 2.636 31.349 11.479 34.352.468zM52.516.401L52.516 9.541 44.618.401 44.618 11.481 45.391 11.481 45.391 2.458 53.236 11.481 53.236.401z" transform="translate(0 -2) translate(35 4)"/>
                <path d="M61.517 6.461v2.945h1.037c.91 0 1.522-.115 1.837-.344.316-.229.475-.561.475-1 0-.495-.184-.886-.555-1.173-.372-.285-.989-.428-1.852-.428h-.943zm0-4.375v2.422h.968c.532 0 .93-.111 1.187-.336.26-.223.39-.53.39-.914 0-.359-.125-.645-.368-.857-.248-.211-.622-.315-1.123-.315h-1.054zm-2.135 9.405V0h2.392c1.05 0 1.666.066 2.151.202.688.181 1.237.522 1.642 1.016.41.495.613 1.079.613 1.749 0 .437-.096.835-.277 1.194-.187.354-.49.691-.904 1.003.699.328 1.206.738 1.53 1.23.325.491.484 1.075.484 1.748 0 .645-.168 1.232-.499 1.764-.332.531-.763.93-1.29 1.191-.526.264-1.255.394-2.184.394h-3.657zM68.808 0L75.079 0 75.079 2.14 70.98 2.14 70.98 4.508 75.079 4.508 75.079 6.61 70.98 6.61 70.98 9.344 75.079 9.344 75.079 11.491 68.808 11.491zM81.661 3.047L80.212 6.99h2.886l-1.437-3.943zM80.607 0h2.082l4.148 11.491h-2.133l-.846-2.366h-4.399l-.879 2.366h-2.134L80.607.001zM87.786 0h2.195v7.431c0 .64.057 1.092.17 1.36.112.266.296.475.554.633.26.16.569.24.935.24.383 0 .716-.09.995-.265.279-.178.47-.4.579-.675.106-.273.158-.796.158-1.565V0h2.196v6.851c0 1.157-.064 1.96-.194 2.407-.133.448-.38.88-.746 1.296-.367.418-.79.725-1.27.926-.479.2-1.037.302-1.673.302-.832 0-1.56-.193-2.173-.574-.621-.383-1.059-.864-1.327-1.44-.264-.574-.399-1.549-.399-2.917V.001zM96.956 0L104.962 0 104.962 2.157 102.041 2.157 102.041 11.491 99.822 11.491 99.822 2.157 96.956 2.157zM106.155 0L108.504 0 110.647 4.132 112.781 0 115.099 0 111.737 6.517 111.737 11.491 109.532 11.491 109.532 6.517z" transform="translate(0 -2) translate(35 4)"/>
            </g>
        </g>
        <g>
            <g transform="translate(0 -2) translate(160 12) translate(0 .177)">
                <mask id="reg0e56p7b" fill="#fff">
                    <use xlink:href="#vuq4h85mpa"/>
                </mask>
                <path fill="#EF918B" d="M13.392.345c.238 0 .48.364.724 1.092.245.728.368 1.481.368 2.261 0 1.73-.384 3.649-1.153 5.755s-1.753 3.803-2.952 5.092c-1.2 1.288-2.446 1.933-3.738 1.933-1.048 0-1.9-.372-2.557-1.114-.658-.743-.987-1.712-.987-2.908.003-1.12.408-2.755 1.217-4.902.741-2.043 1.112-3.503 1.112-4.38 0-.579-.111-1.028-.334-1.348-.223-.319-.531-.479-.925-.479-.609 0-1.183.34-1.721 1.02-.539.68-.808 1.41-.808 2.19 0 .63.163 1.1.49 1.409.327.308.49.54.49.696 0 .267-.161.578-.484.93-.323.353-.611.53-.864.53-.312 0-.601-.214-.869-.641C.134 7.054 0 6.577 0 6.049c0-1.351.485-2.644 1.454-3.877C2.424.939 3.558.322 4.858.322c.995 0 1.792.373 2.39 1.12.598.746.896 1.746.896 3 0 .58-.075 1.233-.228 1.96-.151.728-.513 1.87-1.086 3.428-.572 1.557-.858 2.737-.858 3.54 0 .527.154.963.462 1.308.309.345.697.519 1.165.519.713 0 1.46-.426 2.24-1.276.78-.85 1.425-1.954 1.938-3.31.512-1.355.769-2.664.769-3.927 0-1.196-.365-2.488-1.092-3.877-.23-.416-.346-.705-.346-.869 0-.282.325-.618.975-1.009.65-.39 1.086-.584 1.31-.584" mask="url(#reg0e56p7b)"/>
            </g>
            <path fill="#EF918B" d="M20.211 2.594c0 1.783-.657 2.674-1.972 2.674-.639 0-1.185-.193-1.638-.58.431-.653.765-1.388 1.003-2.205.587.364 1.059.546 1.415.546.401 0 .798-.145 1.192-.435zm.223 11.342c-1.739 1.828-3.038 2.741-3.9 2.741-.475 0-.876-.243-1.203-.73-.327-.486-.49-1.097-.49-1.832 0-1.583.535-3.774 1.604-6.574l2.83-.59h.134l-1.114 3.487c-.461 1.441-.691 2.47-.691 3.086 0 .245.054.444.162.596.107.153.243.229.406.229.29 0 .581-.106.875-.318.293-.211.755-.67 1.387-1.376v1.281z" transform="translate(0 -2) translate(160 12)"/>
            <path fill="#EF918B" d="M28.768 13.936c-1.865 1.828-3.302 2.741-4.312 2.741-.453 0-.835-.191-1.147-.574-.313-.382-.469-.856-.469-1.42 0-1.048.561-2.451 1.683-4.212-.55.283-1.151.48-1.805.59-.483.892-1.24 1.85-2.273 2.875h-.256v-1.002c.58-.602 1.103-1.248 1.57-1.94-.638-.281-.958-.701-.958-1.258 0-.572.196-1.183.585-1.833.39-.65.927-.975 1.61-.975.58 0 .87.298.87.892 0 .468-.168 1.136-.502 2.005 1.233-.134 2.31-1.077 3.231-2.83l1.014-.044-1.036 2.852c-.43 1.203-.71 2.022-.836 2.456-.126.435-.19.82-.19 1.154 0 .312.073.56.218.746.145.186.34.279.585.279.267 0 .524-.091.769-.273.245-.182.795-.686 1.649-1.51v1.281z" transform="translate(0 -2) translate(160 12)"/>
            <path fill="#EF918B" d="M35.185 13.936c-.936.929-1.745 1.614-2.428 2.056-.684.442-1.334.663-1.95.663-.64 0-1.157-.27-1.555-.808-.397-.538-.596-1.246-.596-2.122 0-.773.19-1.793.572-3.06l.473-1.687-.855.045.356-1.75 1.06-.044 1.046-3.476 2.976-.61-1.151 3.874 1.573-.089-.368 1.716-1.728.134-.742 2.496c-.258.868-.387 1.558-.387 2.07 0 .35.087.635.262.854.175.22.4.329.675.329.38 0 .755-.12 1.127-.362s.919-.745 1.64-1.51v1.281z" transform="translate(0 -2) translate(160 12)"/>
            <path fill="#EF918B" d="M47.073 13.936c-.98.929-1.801 1.614-2.462 2.056-.66.442-1.255.663-1.783.663-.587 0-1.038-.234-1.353-.702-.316-.468-.474-1.103-.474-1.905-.817.899-1.549 1.561-2.195 1.988-.646.427-1.277.641-1.894.641-.564 0-1.017-.234-1.359-.702-.342-.468-.512-1.103-.512-1.905 0-1.545.52-3.721 1.56-6.53l2.975-.592c-1.224 3.56-1.837 5.846-1.84 6.855 0 .713.268 1.07.803 1.07.386 0 .865-.314 1.437-.942.572-.628.928-1.176 1.07-1.644l1.46-4.746 3.032-.613c-.7 2.236-1.18 3.806-1.441 4.713-.261.906-.391 1.54-.391 1.905 0 .698.238 1.048.714 1.048.386 0 .958-.353 1.716-1.059l.937-.88v1.281z" transform="translate(0 -2) translate(160 12)"/>
            <path fill="#EF918B" d="M50.806 14.55c.742 0 1.443-.634 2.1-1.9.657-1.267.986-2.435.986-3.504 0-.416-.093-.741-.279-.975-.185-.234-.434-.35-.746-.35-.743 0-1.447.63-2.112 1.893-.664 1.263-.997 2.425-.997 3.487 0 .401.099.726.296.975.196.249.447.373.752.373zm8.155-.614c-1.188 1.13-2.038 1.865-2.551 2.207-.513.341-1.003.512-1.47.512-1.174 0-1.728-1.036-1.66-3.108-.744 1.062-1.429 1.845-2.056 2.35-.628.506-1.276.758-1.944.758-.654 0-1.21-.306-1.666-.92-.457-.612-.685-1.364-.685-2.255 0-1.114.306-2.177.919-3.187.613-1.01 1.398-1.827 2.356-2.451.958-.624 1.805-.936 2.54-.936.929 0 1.578.427 1.95 1.281l2.278-1.259h.625l-.983 3.265c-.506 1.642-.76 2.767-.76 3.376 0 .639.227.958.68.958.29 0 .608-.154.957-.462.35-.308.84-.778 1.47-1.41v1.281z" transform="translate(0 -2) translate(160 12)"/>
            <g transform="translate(0 -2) translate(160 12) translate(58.5 .177)">
                <mask id="steq72rfzd" fill="#fff">
                    <use xlink:href="#vjllw0aqoc"/>
                </mask>
                <path fill="#EF918B" d="M3.559 9.403c.943-1.049 1.708-2.224 2.295-3.526.587-1.301.88-2.421.88-3.358 0-.275-.04-.497-.123-.664-.081-.168-.185-.251-.312-.251-.274 0-.674.684-1.197 2.053-.524 1.368-1.038 3.284-1.543 5.746zm4.267 4.356c-1.01.929-1.896 1.614-2.657 2.056-.762.442-1.488.663-2.179.663-.795 0-1.435-.308-1.921-.925-.487-.616-.73-1.444-.73-2.484 0-1.56.337-3.432 1.013-5.616.676-2.184 1.497-4.196 2.463-6.039L6.645.367c.09-.03.156-.044.2-.044.216 0 .392.157.53.473.137.316.206.741.206 1.276 0 1.515-.35 2.982-1.048 4.4-.698 1.42-1.79 2.935-3.275 4.546-.06.773-.09 1.304-.09 1.594 0 .646.12 1.158.357 1.537.238.379.554.568.948.568.4 0 .827-.144 1.28-.434.453-.29 1.144-.891 2.073-1.805v1.281z" mask="url(#steq72rfzd)"/>
            </g>
        </g>
    </g>
</svg>
