<svg xmlns="http://www.w3.org/2000/svg" width="98" height="25" viewBox="0 0 98 25">
    <g fill="none" fill-rule="evenodd">
        <g fill="#FFF">
            <path d="M15.951 4.037c-.013-.124-.03-.247-.046-.366-.362-2.47-.801-3.5-1.668-3.645C14.13.01 14.019 0 13.906 0c-1.175 0-2.701.9-3.861 1.773-.125.094-.25.191-.371.29-4.037 3.27-5.588 8.46-4.427 13.191.35 1.428.937 2.815 1.79 4.093.105.15.216.302.328.453.142.193.29.387.443.583.485.587 1.032 1.09 1.617 1.527-1.834-1.903-2.964-4.49-2.964-7.342 0-5.476 4.159-9.981 9.49-10.53"/>
            <path d="M9.613 18.81c.977-.96 4.76-4.952 6-10.27.007-.033.017-.064.024-.096.282-1.244.388-2.343.38-3.305-.004-.39-.027-.756-.066-1.102-5.33.55-9.49 5.055-9.49 10.531 0 2.852 1.13 5.439 2.963 7.342l.067.052c-.69-.65-.91-2.173.122-3.152"/>
            <path d="M9.614 18.81c-1.034.98-.814 2.502-.123 3.152.324.238.656.461 1.004.653-.019-.014-.037-.032-.054-.047.047.036.096.07.149.1 1.05.562 2.206.924 3.39 1.06.53.061 1.067.068 1.6.037.364-.02.727-.058 1.08-.152.26-.07.531-.187.671-.431.156-.273.139-.608.064-.902-.058-.231-.153-.456-.25-.646-.865-1.688-2.46-3.013-4.333-3.393-.333-.067-.71-.11-1.095-.11-.771 0-1.57.173-2.103.679M3.27 11.859C1.595 9.986.575 7.515.575 4.804c0-1.177.194-2.308.55-3.365C.83 1.896.491 2.611.297 3.617-.485 7.695-.067 14.64 5.785 19.98c0 0-2.61-3.18-2.515-8.121"/>
            <path d="M4.753 5.719s-.33-2.406-1.766-4.217c-.336-.423-.863-.776-1.2-.73-.054.008-.103.023-.146.053-.086.059-.288.259-.517.614C.77 2.497.575 3.627.575 4.804c0 2.711 1.02 5.182 2.695 7.055.022-1.132.184-2.356.555-3.656.227-.8.528-1.63.928-2.484"/>
        </g>
        <g>
            <g>
                <text fill="#FEFFFD" font-family="PingFangTC-Semibold, PingFang TC" font-size="9.046" font-weight="500" transform="translate(28 3) translate(1.077 8.48)">
                    <tspan x="45.55" y="10">2020</tspan>
                </text>
                <path fill="#FFF" stroke="#FFF" stroke-width=".565" d="M11.735 3.264L7.474 3.264 7.474 3.653 9.39 3.653 9.39 9.516 9.819 9.516 9.819 3.653 11.735 3.653zM43.877 3.404L43.424 3.404 42.115 8.343 40.315 3.515 38.495 8.343 37.211 3.426 37.205 3.404 36.75 3.404 38.436 9.668 40.32 4.667 42.169 9.667 43.866 3.441zM14.117 3.264L13.677 3.264 13.677 9.53 16.73 9.53 16.73 9.108 14.117 9.108zM24.412 3.523L24.041 3.523 24.041 9.454 24.412 9.454 24.412 6.472 27.804 6.472 27.804 9.454 28.173 9.454 28.173 3.523 27.804 3.523 27.804 6.113 24.412 6.113zM22.11 6.715c-.34-.34-.647-.496-.944-.647-.3-.152-.611-.31-.956-.655-.185-.184-.286-.43-.286-.69 0-.262.101-.507.286-.692.185-.184.43-.286.69-.286.261 0 .507.102.691.286.066.066.122.14.166.221l.385-.176c-.066-.127-.15-.242-.252-.343-.264-.264-.616-.41-.99-.41-.373 0-.725.146-.989.41s-.41.615-.41.99c0 .373.146.724.41.989.253.252.614.459.964.658.342.195.696.398.94.64.243.244.377.569.377.914 0 .345-.134.67-.378.914-.244.243-.568.378-.913.378-.345 0-.67-.135-.914-.378-.114-.115-.204-.246-.269-.393l-.39.153c.085.2.207.38.364.535.666.667 1.75.667 2.418 0 .667-.666.667-1.752 0-2.418M35.603 6.484c0 .531-.124 1.019-.369 1.449-.244.433-.591.78-1.03 1.029-.437.25-.92.376-1.435.376-.77 0-1.437-.275-1.984-.818-.546-.544-.823-1.219-.823-2.006 0-.533.125-1.022.372-1.452.247-.434.594-.784 1.033-1.04.442-.255.913-.384 1.402-.384.499 0 .978.129 1.424.385.445.254.795.6 1.041 1.027.248.43.369.899.369 1.434M32.742 3.31c-.565 0-1.095.142-1.576.421-.484.28-.872.671-1.152 1.166-.28.498-.422 1.043-.422 1.62 0 .867.312 1.617.927 2.228.616.613 1.381.923 2.275.923.882 0 1.64-.312 2.254-.926.613-.615.924-1.374.924-2.256 0-.89-.311-1.652-.925-2.26-.615-.608-1.39-.916-2.305-.916M.075 9.529L.49 9.529.49 3.264.075 3.264zM6.377 3.264L6.377 8.432 1.913 3.264 1.913 9.529 2.349 9.529 2.349 4.427 6.785 9.529 6.785 3.264zM12.533 3.264L12.533 3.712 12.757 3.712 12.71 4.081 12.981 3.712 12.981 3.264z" transform="translate(28 3) translate(1.077 8.48)"/>
            </g>
            <g fill="#FFF">
                <path stroke="#FFF" stroke-width=".565" d="M4.261.24L0 .24 0 .629 1.916.629 1.916 6.492 2.345 6.492 2.345.629 4.261.629zM7.455 3.87H5.352l1.055-2.666L7.455 3.87zm-3.58 2.58l-.015.041h.455l.856-2.163h2.452l.857 2.145.007.018h.437L6.404.198 3.875 6.451zM22.706 3.87h-2.103l1.055-2.666 1.048 2.666zm-3.579 2.58l-.016.041h.455l.857-2.163h2.452l.856 2.145.008.018h.436L21.655.198l-2.528 6.253zM10.104 6.486L10.519 6.495 10.645.232 10.23.224zM19.432.227L18.98.227 17.67 5.166 15.87.338 14.05 5.167 12.767.25 12.761.227 12.306.227 13.992 6.491 15.875 1.491 17.724 6.49 19.422.265zM29.691.227L29.691 5.395 25.227.227 25.227 6.491 25.663 6.491 25.663 1.39 30.099 6.491 30.099.227z" transform="translate(28 3) translate(.108)"/>
                <path d="M34.78 3.653v1.665h.587c.515 0 .86-.065 1.038-.194.18-.13.27-.318.27-.566 0-.28-.105-.5-.315-.663-.21-.161-.558-.242-1.046-.242h-.534zm0-2.474v1.37h.548c.301 0 .526-.063.67-.19.148-.126.222-.3.222-.517 0-.203-.071-.365-.209-.485-.14-.119-.35-.178-.634-.178h-.597zm-1.206 5.318V0h1.352c.593 0 .942.037 1.216.114.389.103.7.295.929.575.231.28.346.61.346.988 0 .248-.054.473-.156.676-.106.2-.277.39-.511.567.394.185.681.417.865.695.183.278.273.608.273.988 0 .365-.095.697-.282.998-.188.3-.431.526-.73.673-.297.15-.709.223-1.234.223h-2.068zM38.903 0L42.448 0 42.448 1.21 40.131 1.21 40.131 2.549 42.448 2.549 42.448 3.737 40.131 3.737 40.131 5.283 42.448 5.283 42.448 6.497 38.903 6.497zM46.17 1.723l-.82 2.23h1.632l-.812-2.23zM45.574 0h1.177l2.345 6.497H47.89l-.478-1.338h-2.487l-.497 1.338H43.22L45.574 0zM49.633 0h1.24v4.201c0 .362.033.618.097.769.063.15.167.269.313.358.147.09.322.135.529.135.216 0 .405-.05.562-.149.158-.1.266-.227.328-.382.06-.154.09-.45.09-.884V0h1.24v3.874c0 .654-.036 1.108-.109 1.36-.075.254-.215.497-.422.733s-.446.41-.718.524c-.27.112-.586.17-.946.17-.47 0-.882-.109-1.228-.324-.351-.217-.599-.489-.75-.814-.15-.325-.226-.876-.226-1.65V0zM54.817 0L59.344 0 59.344 1.22 57.692 1.22 57.692 6.497 56.438 6.497 56.438 1.22 54.817 1.22zM60.019 0L61.347 0 62.558 2.336 63.765 0 65.075 0 63.174 3.685 63.174 6.497 61.928 6.497 61.928 3.685z" transform="translate(28 3) translate(.108)"/>
            </g>
        </g>
    </g>
</svg>
